<svg xmlns="http://www.w3.org/2000/svg"
    xmlns:xlink="http://www.w3.org/1999/xlink" viewBox="0 0 281 141.9" aria-labelledby="swp-logo" role="img">
    <title id="swp-logo">Stiftung Wissenschaft und Politik</title>
    <clipPath id="a">
        <rect fill="none" y="59.3" width="28.3" height="82.38"></rect>
    </clipPath>
    <title>swp_rebrush_logo</title>
    <g style="clip-path:url(#a);">
        <path fill="#b37c00" d="M26.9,141.3l.5-2.3a24.3,24.3,0,0,0,.7-5c0-5.4-3-8.9-7.6-8.9a7.2,7.2,0,0,0-4.2,1.2c-1.2.8-1.4,1.1-3.1,3.8l-2.8,4.4c-1.8,2.9-2.7,3.5-4.6,3.5s-4-2-4-6.1c0-.7,0-1,.1-2.1v-.3l5-2v-1.5H1.1v.6l-.4,1.7c-.1.5-.2,1.2-.4,2.2s-.2,2.4-.2,3.1c0,4.7,3,7.9,7.3,7.9a6,6,0,0,0,3.5-1c1.2-.7,1.9-1.5,3.3-3.7l2.6-4.1c1.9-2.9,2.8-3.6,4.9-3.6s4.4,2,4.4,5.9a17.7,17.7,0,0,1-.2,3l-5.2,2v1.5h6.1Z"></path>
        <path fill="#004579" d="M28.3,95.8V94.1L2.7,84.7,1.2,81.4H.2v9.3h1l1.5-3.2,19.7,6.6a21.7,21.7,0,0,0-4,1.1L.2,101v1.9l22,7.6-.8.3-1.5.3-1.6.5L2.7,116.5l-1.5-3.2H.2v10.5h1l1.5-3.2,25.6-8.4v-1.7L6.7,102.9Z"></path>
        <path fill="#004579" style="fill-rule:evenodd;" d="M27.9,67.9h-1l-1.5,4.4H16.1v-3c0-6.2-3.2-10-8.2-10a7.2,7.2,0,0,0-5.7,2.4C.8,63.5.2,65.5.2,69.2V79.7h1l1.5-3.5H25.4l1.5,3.5h1ZM1.9,72.3V69.4c0-2.4.5-3.6,1.8-4.6a7.2,7.2,0,0,1,4.4-1.3,6.9,6.9,0,0,1,4.3,1.3c1.5,1.2,2.1,2.7,2.1,5.5v2Z"></path>
    </g>
    <rect fill="#b37c00" width="9.4" height="9.35"></rect>
    <rect fill="#004579" x="9.4" width="19" height="9.35"></rect>
    <path fill="#b37c00" d="M47.8,106.8h.6l.7,1.9h1.2a1.8,1.8,0,0,0,1.3-.4,1.3,1.3,0,0,0,.4-1,1.6,1.6,0,0,0,0-.4l-.2-.3-.3-.3-.5-.4-1.5-1a3.7,3.7,0,0,1-1.1-1.1,2.4,2.4,0,0,1-.1-2.3,2.2,2.2,0,0,1,.6-.8l1-.5,1.3-.2h1.4l1,.3v2.2h-.6l-.7-1.8h-.8a2.8,2.8,0,0,0-1.5.3,1,1,0,0,0-.5.9,1.1,1.1,0,0,0,.2.7l.7.6,2.3,1.5a2.1,2.1,0,0,1,.8,1,3,3,0,0,1,.2,1.1,2.3,2.3,0,0,1-.2,1.1,2.3,2.3,0,0,1-.6.8l-1,.5-1.2.2h-2l-.8-.2Z"></path>
    <path fill="#b37c00" d="M54.3,103.5V103l.9-.3.5-.3.4-.5.4-.8H57v1.7h2.1v.7H57v4.3a1.2,1.2,0,0,0,.1.5l.3.3h1.8v.5l-.9.2h-2l-.5-.2-.4-.5a1.8,1.8,0,0,1-.1-.7v-4.6Z"></path>
    <path fill="#b37c00" d="M61,103.9l-1.2-.3v-.4l2.9-.5v6l1.1.5v.4h-4v-.4l1.2-.5Zm.8-3.9.8.2a.9.9,0,0,1,0,1.2l-.8.2-.8-.2a1,1,0,0,1,0-1.2Z"></path>
    <path fill="#b37c00" d="M67.1,108.6l1.4.5v.4H64.2v-.4l1.2-.5v-5.1h-1v-.7h1v-.4a2.6,2.6,0,0,1,.2-1.1,2.3,2.3,0,0,1,.7-.8l1-.5,1.2-.2h.8l.8.2v1.2h-1l-.5-.9a1.6,1.6,0,0,0-1.1.4,1.5,1.5,0,0,0-.4,1.1v.9h1.7v.7H67.1Z"></path>
    <path fill="#b37c00" d="M69.2,103.5V103l.9-.3.5-.3.4-.5.4-.8h.5v1.7H74v.7H71.9v4.3a1.2,1.2,0,0,0,.1.5l.3.3H74v.5l-.9.2h-2l-.5-.2-.4-.5a1.8,1.8,0,0,1-.1-.7v-4.6Z"></path>
    <path fill="#b37c00" d="M79.7,108.9l-.9.4-.6.2H76.7l-.6-.3-.4-.6a2.5,2.5,0,0,1-.2-.9v-3.8l-1.2-.3v-.4l2.9-.5V107a1.7,1.7,0,0,0,.3,1.2,1.4,1.4,0,0,0,1.1.3h1v-4.6l-1.2-.3v-.4l2.9-.5v5.8l1.1.3v.4l-2.8.5Z"></path>
    <path fill="#b37c00" d="M86,108.6l1,.5v.4H83.2v-.4l1.2-.5v-4.7l-1.2-.3v-.4l2.9-.5v.8l1-.4.6-.2h.8a1.6,1.6,0,0,1,1.3.5,2.2,2.2,0,0,1,.4,1.5v3.9l1.2.5v.4H87.6v-.4l.9-.5v-3.5a1.2,1.2,0,0,0-1.3-1.3H86Z"></path>
    <path fill="#b37c00" d="M98.5,104l-1.8-.5a1.8,1.8,0,0,1,.7,1.5,1.7,1.7,0,0,1-.2.8l-.6.7-.9.4-1.1.2h-.5l-.3.4v.3q0,.4.8.4h2.6l.5.3.3.5a1.7,1.7,0,0,1,.1.6,2.1,2.1,0,0,1-.3,1,2.7,2.7,0,0,1-.8.9l-1.2.6-1.5.2H93.1l-1-.3-.6-.5a1,1,0,0,1-.2-.7.9.9,0,0,1,.4-.7l1.3-.7-.4-.4a.7.7,0,0,1-.1-.4,1,1,0,0,1,.3-.7l1-.9a2.4,2.4,0,0,1-1.4-.7,1.9,1.9,0,0,1-.5-1.4,2,2,0,0,1,.2-.9,2.2,2.2,0,0,1,.6-.7l.9-.5,1.1-.2h.9l.8.3,2.3-.5ZM94,109.7h-.8l-.5.6a.9.9,0,0,0-.1.5.8.8,0,0,0,.1.5l.4.4.6.2h1.6l.7-.3.5-.5a1,1,0,0,0,.2-.6.6.6,0,0,0-.2-.5l-.5-.2Zm.5-6.5a1,1,0,0,0-.8.4,1.8,1.8,0,0,0-.3,1.1,3.8,3.8,0,0,0,.1.8,2.1,2.1,0,0,0,.2.6l.4.4.5.2a.9.9,0,0,0,.8-.4,1.9,1.9,0,0,0,.3-1.1,2.8,2.8,0,0,0-.3-1.4A1,1,0,0,0,94.5,103.2Z"></path>
    <path fill="#b37c00" d="M106.8,109.5h-.7l-2.9-8.4-1-.5v-.4h3.9v.4l-1.1.5,1.4,4,.3.9.2.9,2.5-6.7h.7L112,106l.3.9v.2l2.1-5.8-1.1-.5v-.4h3.1v.4l-1.1.5-3.3,8.4h-.7l-1.9-5.4-.2-.6-.2-.6Z"></path>
    <path fill="#b37c00" d="M117.5,103.9l-1.2-.3v-.4l2.9-.5v6l1.1.5v.4h-4v-.4l1.2-.5Zm.8-3.9.8.2a.9.9,0,0,1,0,1.2l-.8.2-.8-.2a1,1,0,0,1,0-1.2Z"></path>
    <path fill="#b37c00" d="M121,107.6h.9l.6,1.3h.3q1.3,0,1.3-.9a1.2,1.2,0,0,0,0-.3v-.2l-.2-.2-.4-.3-1.1-.7a2.9,2.9,0,0,1-.9-.8,1.6,1.6,0,0,1-.3-.9,1.7,1.7,0,0,1,.2-.8l.5-.6.7-.4h2.3l.8.2v1.5h-.9l-.6-1.2h-.2l-.9.2a.7.7,0,0,0-.3.6v.5l.2.2.4.2,1.2.7a2,2,0,0,1,.9,2.6l-.5.7-.8.4-1,.2h-1.4l-.8-.2Z"></path>
    <path fill="#b37c00" d="M126.8,107.6h.9l.6,1.3h.3q1.3,0,1.3-.9a1.2,1.2,0,0,0,0-.3v-.2l-.2-.2-.4-.3-1.1-.7a2.9,2.9,0,0,1-.9-.8,1.6,1.6,0,0,1-.3-.9,1.7,1.7,0,0,1,.2-.8l.5-.6.7-.4h2.3l.8.2v1.5h-.9l-.6-1.2h-.2l-.9.2a.7.7,0,0,0-.3.6v.5l.2.2.4.2,1.2.7a2,2,0,0,1,.9,2.6l-.5.7-.8.4-1,.2h-1.4l-.8-.2Z"></path>
    <path fill="#b37c00" d="M134.2,106h0a3,3,0,0,0,.2,1.1,2.4,2.4,0,0,0,.5.8l.8.5,1,.2h.7l.9-.2v.5l-1.5.4-1.2.2-1.3-.2a2.8,2.8,0,0,1-1.6-1.7,4,4,0,0,1-.2-1.4,4.1,4.1,0,0,1,.2-1.4,3.5,3.5,0,0,1,.7-1.1,3,3,0,0,1,1-.7l1.3-.3a2.7,2.7,0,0,1,2,.7,3.2,3.2,0,0,1,.7,2.3v.2Zm2.5-.7h0a2.4,2.4,0,0,0-.3-1.5,1,1,0,0,0-.8-.4,1.1,1.1,0,0,0-1,.5,2.6,2.6,0,0,0-.4,1.4v.3Z"></path>
    <path fill="#b37c00" d="M142,108.6l1,.5v.4h-3.9v-.4l1.2-.5v-4.7l-1.2-.3v-.4l2.9-.5v.8l1-.4.6-.2h.8a1.6,1.6,0,0,1,1.3.5,2.2,2.2,0,0,1,.4,1.5v3.9l1.2.5v.4h-3.7v-.4l.9-.5v-3.5a1.2,1.2,0,0,0-1.3-1.3H142Z"></path>
    <path fill="#b37c00" d="M147.9,107.6h.9l.6,1.3h.3q1.3,0,1.3-.9a1.2,1.2,0,0,0,0-.3v-.2l-.2-.2-.4-.3-1.1-.7a2.9,2.9,0,0,1-.9-.8,1.6,1.6,0,0,1-.3-.9,1.7,1.7,0,0,1,.2-.8l.5-.6.7-.4h2.3l.8.2v1.5h-.9l-.6-1.2h-.2l-.9.2a.7.7,0,0,0-.3.6v.5l.2.2.4.2,1.2.7a2,2,0,0,1,.9,2.6l-.5.7-.8.4-1,.2h-1.4l-.8-.2Z"></path>
    <path fill="#b37c00" d="M159.3,104.6h-1.2l-.6-1.3h-.1l-.8.2-.7.6a2.9,2.9,0,0,0-.4.9,3.7,3.7,0,0,0-.2,1.1,2.8,2.8,0,0,0,.7,2,2.5,2.5,0,0,0,1.9.7h1.3v.5l-1.5.4h-1.1l-1.3-.2-1-.7a3,3,0,0,1-.6-1,3.7,3.7,0,0,1-.2-1.3,3.9,3.9,0,0,1,.3-1.5,3.2,3.2,0,0,1,.8-1.1,3.5,3.5,0,0,1,1.2-.7l1.5-.3h.9l1.1.2Z"></path>
    <path fill="#b37c00" d="M162.9,108.6l1,.5v.4H160v-.4l1.2-.5v-7.5l-1.2-.3v-.4l2.9-.5v3.6l.9-.3.7-.2h1a1.5,1.5,0,0,1,1.3.6,2.6,2.6,0,0,1,.5,1.7v3.6l1.2.5v.4h-3.8v-.4l1-.5v-3.2a2.1,2.1,0,0,0-.3-1.3,1.3,1.3,0,0,0-1.1-.4h-1.1Z"></path>
    <path fill="#b37c00" d="M170.5,104.6h-1.2v-1.3l1.6-.4H172a2.8,2.8,0,0,1,1.5.4,1.2,1.2,0,0,1,.6,1.1v4a.5.5,0,0,0,.1.3l.4.2.7.2v.4l-.8.2h-1.1l-.5-.2a1.2,1.2,0,0,1-.3-.6l-.7.4-.5.2h-.7a1.9,1.9,0,0,1-1.3-.5,1.6,1.6,0,0,1-.5-1.2,1.7,1.7,0,0,1,.1-.7l.4-.5,1.1-.4,2.1-.3v-1.8a.8.8,0,0,0-.3-.7l-.7-.2h-.4Zm2,1.8-1,.2-.6.2-.3.3a1,1,0,0,0-.1.5,1,1,0,0,0,.3.8,1.2,1.2,0,0,0,.8.3h.9Z"></path>
    <path fill="#b37c00" d="M178.5,108.6l1.4.5v.4h-4.3v-.4l1.2-.5v-5.1h-1v-.7h1v-.4a2.6,2.6,0,0,1,.2-1.1,2.3,2.3,0,0,1,.7-.8l1-.5,1.2-.2h.8l.8.2v1.2h-1l-.5-.9a1.6,1.6,0,0,0-1.1.4,1.5,1.5,0,0,0-.4,1.1v.9h1.7v.7h-1.7Z"></path>
    <path fill="#b37c00" d="M180.6,103.5V103l.9-.3.5-.3.4-.5.4-.8h.5v1.7h2.1v.7h-2.1v4.3a1.2,1.2,0,0,0,.1.5l.3.3h1.8v.5l-.9.2h-2l-.5-.2-.4-.5a1.8,1.8,0,0,1-.1-.7v-4.6Z"></path>
    <path fill="#b37c00" d="M194.8,108.9l-.9.4-.6.2h-1.5l-.6-.3-.4-.6a2.5,2.5,0,0,1-.2-.9v-3.8l-1.2-.3v-.4l2.9-.5V107a1.7,1.7,0,0,0,.3,1.2,1.4,1.4,0,0,0,1.1.3h1v-4.6l-1.2-.3v-.4l2.9-.5v5.8l1.1.3v.4l-2.8.5Z"></path>
    <path fill="#b37c00" d="M201.1,108.6l1,.5v.4h-3.9v-.4l1.2-.5v-4.7l-1.2-.3v-.4l2.9-.5v.8l1-.4.6-.2h.8a1.6,1.6,0,0,1,1.3.5,2.2,2.2,0,0,1,.4,1.5v3.9l1.2.5v.4h-3.7v-.4l.9-.5v-3.5a1.2,1.2,0,0,0-1.3-1.3h-1.1Z"></path>
    <path fill="#b37c00" d="M214.3,108.8v.4l-2.8.5v-.9l-.8.4-.6.3h-.9l-1-.2-.8-.7a3.3,3.3,0,0,1-.5-1,4.1,4.1,0,0,1,.1-2.7,3.6,3.6,0,0,1,.8-1.2,3.5,3.5,0,0,1,1.1-.8,3.6,3.6,0,0,1,1.4-.3h1.1v-1.8l-1.2-.3v-.4l2.9-.5v8.6Zm-2.8-5.3h-.6l-.9.2-.7.5a2.5,2.5,0,0,0-.5.9,3.6,3.6,0,0,0-.2,1.1,2.9,2.9,0,0,0,.5,1.9,1.8,1.8,0,0,0,1.5.7h.9Z"></path>
    <path fill="#b37c00" d="M221.6,108.6l1.1.5v.4h-4.1v-.4l1.2-.5v-7.4l-1.2-.5v-.4h3.8l1.6.2,1.1.5a2.1,2.1,0,0,1,.6.8,2.7,2.7,0,0,1,.2,1,2.6,2.6,0,0,1-.2,1.1,2.4,2.4,0,0,1-.7.9l-1.1.5-1.4.2h-.9Zm.7-3.6a1.7,1.7,0,0,0,1.4-.6,2.3,2.3,0,0,0,.5-1.5,2.2,2.2,0,0,0-.5-1.5,1.7,1.7,0,0,0-1.4-.5h-.7V105Z"></path>
    <path fill="#b37c00" d="M230.1,102.7l1.4.2a3,3,0,0,1,1.7,1.8,3.8,3.8,0,0,1,.2,1.4,4,4,0,0,1-.3,1.5,3.2,3.2,0,0,1-.7,1.1,3.3,3.3,0,0,1-1.1.7l-1.4.3-1.4-.2a3,3,0,0,1-1.8-1.7,3.6,3.6,0,0,1-.2-1.4,4,4,0,0,1,.3-1.4,3.3,3.3,0,0,1,.7-1.1,3.3,3.3,0,0,1,1.1-.8Zm-.2.6a1.3,1.3,0,0,0-1.2.7,3.9,3.9,0,0,0-.4,2,4.3,4.3,0,0,0,.4,2.2,1.4,1.4,0,0,0,2.5.1,3.7,3.7,0,0,0,.4-2,4.3,4.3,0,0,0-.5-2.2A1.4,1.4,0,0,0,229.9,103.4Z"></path>
    <path fill="#b37c00" d="M235.3,101.1l-1.2-.3v-.4l2.9-.5v8.8l1.1.5v.4h-4v-.4l1.2-.5Z"></path>
    <path fill="#b37c00" d="M239.6,103.9l-1.2-.3v-.4l2.9-.5v6l1.1.5v.4h-4v-.4l1.2-.5Zm.8-3.9.8.2a.9.9,0,0,1,0,1.2l-.8.2-.8-.2a1,1,0,0,1,0-1.2Z"></path>
    <path fill="#b37c00" d="M242.6,103.5V103l.9-.3.5-.3.4-.5.4-.8h.5v1.7h2.1v.7h-2.1v4.3a1.2,1.2,0,0,0,.1.5l.3.3h1.8v.5l-.9.2h-2l-.5-.2-.4-.5a1.8,1.8,0,0,1-.1-.7v-4.6Z"></path>
    <path fill="#b37c00" d="M249.3,103.9l-1.2-.3v-.4l2.9-.5v6l1.1.5v.4h-4v-.4l1.2-.5Zm.8-3.9.8.2a.9.9,0,0,1,0,1.2l-.8.2-.8-.2a1,1,0,0,1,0-1.2Z"></path>
    <path fill="#b37c00" d="M253.6,101.1l-1.2-.3v-.4l2.9-.5v8.8l1,.5v.4h-3.8v-.4l1.2-.5Zm4,2.5-.9-.4v-.4h3.4v.4l-1.4.5-1.8,1.6,2.4,3.5,1,.4v.4h-2.5l-2.4-3.6Z"></path>
    <path fill="#004778" d="M48.9,117.3l-1.2-.5v-.4h4.5a5.5,5.5,0,0,1,2,.3,3.8,3.8,0,0,1,1.4.9,3.9,3.9,0,0,1,.9,1.4,5.3,5.3,0,0,1,.3,1.8,5.5,5.5,0,0,1-.3,1.9,4.1,4.1,0,0,1-.9,1.5,4.2,4.2,0,0,1-1.5,1,6,6,0,0,1-2.1.3H47.8v-.4l1.2-.5Zm2.8,7.6a3.4,3.4,0,0,0,1.4-.3,2.8,2.8,0,0,0,1-.8,3.6,3.6,0,0,0,.6-1.2,5.7,5.7,0,0,0,.2-1.6,5.6,5.6,0,0,0-.2-1.5,3.3,3.3,0,0,0-.6-1.2,2.8,2.8,0,0,0-1.1-.8,3.7,3.7,0,0,0-1.5-.3h-.9v7.7Z"></path>
    <path fill="#004778" d="M59.4,122.1h0a3,3,0,0,0,.2,1.1,2.4,2.4,0,0,0,.5.8l.8.5,1,.2h.7l.9-.2v.5l-1.5.4-1.2.2-1.3-.2a2.8,2.8,0,0,1-1.6-1.7,4,4,0,0,1-.2-1.4,4.1,4.1,0,0,1,.2-1.4,3.5,3.5,0,0,1,.7-1.1,3,3,0,0,1,1-.7l1.3-.3a2.7,2.7,0,0,1,2,.7,3.2,3.2,0,0,1,.7,2.3v.2Zm2.5-.7h0a2.4,2.4,0,0,0-.3-1.5,1,1,0,0,0-.8-.4,1.1,1.1,0,0,0-1,.5,2.6,2.6,0,0,0-.4,1.4v.3Z"></path>
    <path fill="#004778" d="M69.4,125l-.9.4-.6.2H66.4l-.6-.3-.4-.6a2.5,2.5,0,0,1-.2-.9v-3.8l-1.2-.3v-.4l2.9-.5v4.4a1.7,1.7,0,0,0,.3,1.2,1.4,1.4,0,0,0,1.1.3h1v-4.6l-1.2-.3v-.4l2.9-.5v5.8l1.1.3v.4l-2.8.5Z"></path>
    <path fill="#004778" d="M72.6,119.6v-.5l.9-.3.5-.3.4-.5.4-.8h.5v1.7h2.1v.7H75.3v4.3a1.2,1.2,0,0,0,.1.5l.3.3h1.8v.5l-.9.2h-2l-.5-.2-.4-.5a1.8,1.8,0,0,1-.1-.7v-4.6Z"></path>
    <path fill="#004778" d="M78.5,123.7h.9l.6,1.3h.3q1.3,0,1.3-.9a1.2,1.2,0,0,0,0-.3v-.2l-.2-.2-.4-.3-1.1-.7a2.9,2.9,0,0,1-.9-.8,1.6,1.6,0,0,1-.3-.9,1.7,1.7,0,0,1,.2-.8l.5-.6.7-.4h2.3l.8.2v1.5H82l-.6-1.2h-.2l-.9.2a.7.7,0,0,0-.3.6v.5l.2.2.4.2,1.2.7a2,2,0,0,1,.9,2.6l-.5.7-.8.4-1,.2H79.3l-.8-.2Z"></path>
    <path fill="#004778" d="M89.8,120.7H88.7l-.6-1.3H88l-.8.2-.7.6a2.9,2.9,0,0,0-.4.9,3.7,3.7,0,0,0-.2,1.1,2.8,2.8,0,0,0,.7,2,2.5,2.5,0,0,0,1.9.7h1.3v.5l-1.5.4H87.3l-1.3-.2-1-.7a3,3,0,0,1-.6-1,3.7,3.7,0,0,1-.2-1.3,3.9,3.9,0,0,1,.3-1.5,3.2,3.2,0,0,1,.8-1.1,3.5,3.5,0,0,1,1.2-.7l1.5-.3h.9l1.1.2Z"></path>
    <path fill="#004778" d="M93.5,124.7l1,.5v.4H90.6v-.4l1.2-.5v-7.5l-1.2-.3v-.4l2.9-.5v3.6l.9-.3.7-.2h1a1.5,1.5,0,0,1,1.3.6,2.6,2.6,0,0,1,.5,1.7v3.6l1.2.5v.4H95.1v-.4l1-.5v-3.2a2.1,2.1,0,0,0-.3-1.3,1.3,1.3,0,0,0-1.1-.4H93.5Z"></path>
    <path fill="#004778" d="M101,122.1h0a3,3,0,0,0,.2,1.1,2.4,2.4,0,0,0,.5.8l.8.5,1,.2h.7l.9-.2v.5l-1.5.4-1.2.2-1.3-.2a2.8,2.8,0,0,1-1.6-1.7,4,4,0,0,1-.2-1.4,4.1,4.1,0,0,1,.2-1.4,3.5,3.5,0,0,1,.7-1.1,3,3,0,0,1,1-.7l1.3-.3a2.7,2.7,0,0,1,2,.7,3.2,3.2,0,0,1,.7,2.3v.2Zm2.5-.7h0a2.4,2.4,0,0,0-.3-1.5,1,1,0,0,0-.8-.4,1.1,1.1,0,0,0-1,.5,2.6,2.6,0,0,0-.4,1.4v.3Z"></path>
    <path fill="#004778" d="M106.3,123.7h.9l.6,1.3h.3q1.3,0,1.3-.9a1.2,1.2,0,0,0,0-.3v-.2l-.2-.2-.4-.3-1.1-.7a2.9,2.9,0,0,1-.9-.8,1.6,1.6,0,0,1-.3-.9,1.7,1.7,0,0,1,.2-.8l.5-.6.7-.4h2.3l.8.2v1.5h-.9l-.6-1.2H109l-.9.2a.7.7,0,0,0-.3.6v.5l.2.2.4.2,1.2.7a2,2,0,0,1,.9,2.6l-.5.7-.8.4-1,.2h-1.4l-.8-.2Z"></path>
    <path fill="#004778" d="M116.7,117.3l-1.2-.5v-.4h4.1v.4l-1.2.5v7.4l1.2.5v.4h-4.1v-.4l1.2-.5Z"></path>
    <path fill="#004778" d="M123.2,124.7l1,.5v.4h-3.9v-.4l1.2-.5v-4.7l-1.2-.3v-.4l2.9-.5v.8l1-.4.6-.2h.8a1.6,1.6,0,0,1,1.3.5,2.2,2.2,0,0,1,.4,1.5v3.9l1.2.5v.4h-3.7v-.4l.9-.5v-3.5a1.2,1.2,0,0,0-1.3-1.3h-1.1Z"></path>
    <path fill="#004778" d="M129.1,123.7h.9l.6,1.3h.3q1.3,0,1.3-.9a1.2,1.2,0,0,0,0-.3v-.2l-.2-.2-.4-.3-1.1-.7a2.9,2.9,0,0,1-.9-.8,1.6,1.6,0,0,1-.3-.9,1.7,1.7,0,0,1,.2-.8l.5-.6.7-.4h2.3l.8.2v1.5h-.9l-.6-1.2h-.2l-.9.2a.7.7,0,0,0-.3.6v.5l.2.2.4.2,1.2.7a2,2,0,0,1,.9,2.6l-.5.7-.8.4-1,.2h-1.4l-.8-.2Z"></path>
    <path fill="#004778" d="M134.4,119.6v-.5l.9-.3.5-.3.4-.5.4-.8h.5v1.7h2.1v.7h-2.1v4.3a1.2,1.2,0,0,0,.1.5l.3.3h1.8v.5l-.9.2h-2l-.5-.2-.4-.5a1.8,1.8,0,0,1-.1-.7v-4.6Z"></path>
    <path fill="#004778" d="M141.1,119.9l-1.2-.3v-.4l2.9-.5v6l1.1.5v.4h-4v-.4l1.2-.5Zm.8-3.9.8.2a.9.9,0,0,1,0,1.2l-.8.2-.8-.2a1,1,0,0,1,0-1.2Z"></path>
    <path fill="#004778" d="M144.1,119.6v-.5l.9-.3.5-.3.4-.5.4-.8h.5v1.7H149v.7h-2.1v4.3a1.2,1.2,0,0,0,.1.5l.3.3H149v.5l-.9.2h-2l-.5-.2-.4-.5a1.8,1.8,0,0,1-.1-.7v-4.6Z"></path>
    <path fill="#004778" d="M154.7,125l-.9.4-.6.2h-1.5l-.6-.3-.4-.6a2.5,2.5,0,0,1-.2-.9v-3.8l-1.2-.3v-.4l2.9-.5v4.4a1.7,1.7,0,0,0,.3,1.2,1.4,1.4,0,0,0,1.1.3h1v-4.6l-1.2-.3v-.4l2.9-.5v5.8l1.1.3v.4l-2.8.5Z"></path>
    <path fill="#004778" d="M158,119.6v-.5l.9-.3.5-.3.4-.5.4-.8h.5v1.7h2.1v.7h-2.1v4.3a1.2,1.2,0,0,0,.1.5l.3.3h1.8v.5l-.9.2h-2l-.5-.2-.4-.5a1.8,1.8,0,0,1-.1-.7v-4.6Z"></path>
    <path fill="#004778" d="M170,124.7l1.4.5v.4h-4.3v-.4l1.2-.5v-5.1h-1v-.7h1v-.4a2.6,2.6,0,0,1,.2-1.1,2.3,2.3,0,0,1,.7-.8l1-.5,1.2-.2h.8l.8.2v1.2h-1l-.5-.9a1.6,1.6,0,0,0-1.1.4,1.5,1.5,0,0,0-.4,1.1v.9h1.7v.7H170Z"></path>
    <path fill="#004778" d="M177.5,125l-.9.4-.6.2h-1.5l-.6-.3-.4-.6a2.5,2.5,0,0,1-.2-.9v-3.8l-1.2-.3v-.4l2.9-.5v4.4a1.7,1.7,0,0,0,.3,1.2,1.4,1.4,0,0,0,1.1.3h1v-4.6l-1.2-.3v-.4l2.9-.5v5.8l1.1.3v.4l-2.8.5Zm-2.6-8.2a.7.7,0,0,1,.8.8.8.8,0,0,1-1.5,0A.7.7,0,0,1,174.9,116.8Zm2.6,0a.7.7,0,0,1,.8.8.8.8,0,0,1-1.5,0A.7.7,0,0,1,177.5,116.8Z"></path>
    <path fill="#004778" d="M183.8,124.7l1.4.5v.4h-4.3v-.4l1.2-.5v-4.7l-1.2-.3v-.4l2.9-.5v.8l.7-.4.7-.3h1l.4.2v1.7h-1.4l-.4-.9h-1.1Z"></path>
    <path fill="#004778" d="M48.9,133.4l-1.2-.5v-.4h4.1v.4l-1.2.5v7.4l1.2.5v.4H47.8v-.4l1.2-.5Z"></path>
    <path fill="#004778" d="M55.4,140.8l1,.5v.4H52.5v-.4l1.2-.5V136l-1.2-.3v-.4l2.9-.5v.8l1-.4.6-.2h.8a1.6,1.6,0,0,1,1.3.5,2.2,2.2,0,0,1,.4,1.5v3.9l1.2.5v.4H57v-.4l.9-.5v-3.5a1.2,1.2,0,0,0-1.3-1.3H55.4Z"></path>
    <path fill="#004778" d="M60.8,135.7v-.5l.9-.3.5-.3.4-.5.4-.8h.5V135h2.1v.7H63.5v4.3a1.2,1.2,0,0,0,.1.5l.3.3h1.8v.5l-.9.2h-2l-.5-.2L62,141a1.8,1.8,0,0,1-.1-.7v-4.6Z"></path>
    <path fill="#004778" d="M68.2,138.2h0a3,3,0,0,0,.2,1.1,2.4,2.4,0,0,0,.5.8l.8.5,1,.2h.7l.9-.2v.5l-1.5.4-1.2.2-1.3-.2a2.8,2.8,0,0,1-1.6-1.7,4,4,0,0,1-.2-1.4,4.1,4.1,0,0,1,.2-1.4,3.5,3.5,0,0,1,.7-1.1,3,3,0,0,1,1-.7l1.3-.3a2.7,2.7,0,0,1,2,.7,3.2,3.2,0,0,1,.7,2.3v.2Zm2.5-.7h0a2.4,2.4,0,0,0-.3-1.5,1,1,0,0,0-.8-.4,1.1,1.1,0,0,0-1,.5,2.6,2.6,0,0,0-.4,1.4v.3Z"></path>
    <path fill="#004778" d="M76.1,140.8l1.4.5v.4H73.2v-.4l1.2-.5V136l-1.2-.3v-.4l2.9-.5v.8l.7-.4.7-.3h1l.4.2v1.7H77.5l-.4-.9H76.1Z"></path>
    <path fill="#004778" d="M82.3,140.8l1,.5v.4H79.4v-.4l1.2-.5V136l-1.2-.3v-.4l2.9-.5v.8l1-.4.6-.2h.8a1.6,1.6,0,0,1,1.3.5,2.2,2.2,0,0,1,.4,1.5v3.9l1.2.5v.4H83.8v-.4l.9-.5v-3.5a1.2,1.2,0,0,0-1.3-1.3H82.3Z"></path>
    <path fill="#004778" d="M89.8,136.7H88.5v-1.3l1.6-.4h1.2a2.8,2.8,0,0,1,1.5.4,1.2,1.2,0,0,1,.6,1.1v4a.5.5,0,0,0,.1.3l.4.2.7.2v.4l-.8.2H92.6l-.5-.2a1.2,1.2,0,0,1-.3-.6l-.7.4-.5.2h-.7a1.9,1.9,0,0,1-1.3-.5,1.6,1.6,0,0,1-.5-1.2,1.7,1.7,0,0,1,.1-.7l.4-.5,1.1-.4,2.1-.3v-1.8a.8.8,0,0,0-.3-.7l-.7-.2h-.4Zm2,1.8-1,.2-.6.2-.3.3a1,1,0,0,0-.1.5,1,1,0,0,0,.3.8,1.2,1.2,0,0,0,.8.3h.9Z"></path>
    <path fill="#004778" d="M94.7,135.7v-.5l.9-.3.5-.3.4-.5.4-.8h.5V135h2.1v.7H97.4v4.3a1.2,1.2,0,0,0,.1.5l.3.3h1.8v.5l-.9.2h-2l-.5-.2-.4-.5a1.8,1.8,0,0,1-.1-.7v-4.6Z"></path>
    <path fill="#004778" d="M101.4,136l-1.2-.3v-.4l2.9-.5v6l1.1.5v.4h-4v-.4l1.2-.5Zm.8-3.9.8.2a.9.9,0,0,1,0,1.2l-.8.2-.8-.2a1,1,0,0,1,0-1.2Z"></path>
    <path fill="#004778" d="M108.3,134.9l1.4.2a3,3,0,0,1,1.7,1.8,3.8,3.8,0,0,1,.2,1.4,4,4,0,0,1-.3,1.5,3.2,3.2,0,0,1-.7,1.1,3.3,3.3,0,0,1-1.1.7l-1.4.3-1.4-.2a3,3,0,0,1-1.8-1.7,3.6,3.6,0,0,1-.2-1.4,4,4,0,0,1,.3-1.4,3.3,3.3,0,0,1,.7-1.1,3.3,3.3,0,0,1,1.1-.8Zm-.2.6a1.3,1.3,0,0,0-1.2.7,3.9,3.9,0,0,0-.4,2,4.3,4.3,0,0,0,.4,2.2,1.4,1.4,0,0,0,2.5.1,3.7,3.7,0,0,0,.4-2,4.3,4.3,0,0,0-.5-2.2A1.4,1.4,0,0,0,108.1,135.5Z"></path>
    <path fill="#004778" d="M115.2,140.8l1,.5v.4h-3.9v-.4l1.2-.5V136l-1.2-.3v-.4l2.9-.5v.8l1-.4.6-.2h.8a1.6,1.6,0,0,1,1.3.5,2.2,2.2,0,0,1,.4,1.5v3.9l1.2.5v.4h-3.7v-.4l.9-.5v-3.5a1.2,1.2,0,0,0-1.3-1.3h-1.1Z"></path>
    <path fill="#004778" d="M122.7,136.7h-1.2v-1.3l1.6-.4h1.2a2.8,2.8,0,0,1,1.5.4,1.2,1.2,0,0,1,.6,1.1v4a.5.5,0,0,0,.1.3l.4.2.7.2v.4l-.8.2h-1.1l-.5-.2a1.2,1.2,0,0,1-.3-.6l-.7.4-.5.2h-.7a1.9,1.9,0,0,1-1.3-.5,1.6,1.6,0,0,1-.5-1.2,1.7,1.7,0,0,1,.1-.7l.4-.5,1.1-.4,2.1-.3v-1.8a.8.8,0,0,0-.3-.7l-.7-.2h-.4Zm2,1.8-1,.2-.6.2-.3.3a1,1,0,0,0-.1.5,1,1,0,0,0,.3.8,1.2,1.2,0,0,0,.8.3h.9Z"></path>
    <path fill="#004778" d="M129,133.2l-1.2-.3v-.4l2.9-.5v8.8l1.1.5v.4h-4v-.4l1.2-.5Z"></path>
    <path fill="#004778" d="M134,138.2h0a3,3,0,0,0,.2,1.1,2.4,2.4,0,0,0,.5.8l.8.5,1,.2h.7l.9-.2v.5l-1.5.4-1.2.2-1.3-.2a2.8,2.8,0,0,1-1.6-1.7,4,4,0,0,1-.2-1.4,4.1,4.1,0,0,1,.2-1.4,3.5,3.5,0,0,1,.7-1.1,3,3,0,0,1,1-.7l1.3-.3a2.7,2.7,0,0,1,2,.7,3.2,3.2,0,0,1,.7,2.3v.2Zm2.5-.7h0a2.4,2.4,0,0,0-.3-1.5,1,1,0,0,0-.8-.4,1.1,1.1,0,0,0-1,.5,2.6,2.6,0,0,0-.4,1.4v.3Z"></path>
    <path fill="#004778" d="M145.7,140.8l1.1.5v.4h-4.1v-.4l1.2-.5v-7.4l-1.2-.5v-.4h3.8l1.6.2,1.1.5a2.1,2.1,0,0,1,.6.8,2.7,2.7,0,0,1,.2,1,2.6,2.6,0,0,1-.2,1.1,2.4,2.4,0,0,1-.7.9l-1.1.5-1.4.2h-.9Zm.7-3.6a1.7,1.7,0,0,0,1.4-.6,2.3,2.3,0,0,0,.5-1.5,2.2,2.2,0,0,0-.5-1.5,1.7,1.7,0,0,0-1.4-.5h-.7v4.1Z"></path>
    <path fill="#004778" d="M154.1,134.9l1.4.2a3,3,0,0,1,1.7,1.8,3.8,3.8,0,0,1,.2,1.4,4,4,0,0,1-.3,1.5,3.2,3.2,0,0,1-.7,1.1,3.3,3.3,0,0,1-1.1.7l-1.4.3-1.4-.2a3,3,0,0,1-1.8-1.7,3.6,3.6,0,0,1-.2-1.4,4,4,0,0,1,.3-1.4,3.3,3.3,0,0,1,.7-1.1,3.3,3.3,0,0,1,1.1-.8Zm-.2.6a1.3,1.3,0,0,0-1.2.7,3.9,3.9,0,0,0-.4,2,4.3,4.3,0,0,0,.4,2.2,1.4,1.4,0,0,0,2.5.1,3.7,3.7,0,0,0,.4-2,4.3,4.3,0,0,0-.5-2.2A1.4,1.4,0,0,0,153.9,135.5Z"></path>
    <path fill="#004778" d="M159.3,133.2l-1.2-.3v-.4l2.9-.5v8.8l1.1.5v.4h-4v-.4l1.2-.5Z"></path>
    <path fill="#004778" d="M163.7,136l-1.2-.3v-.4l2.9-.5v6l1.1.5v.4h-4v-.4l1.2-.5Zm.8-3.9.8.2a.9.9,0,0,1,0,1.2l-.8.2-.8-.2a1,1,0,0,1,0-1.2Z"></path>
    <path fill="#004778" d="M166.7,135.7v-.5l.9-.3.5-.3.4-.5.4-.8h.5V135h2.1v.7h-2.1v4.3a1.2,1.2,0,0,0,.1.5l.3.3h1.8v.5l-.9.2h-2l-.5-.2-.4-.5a1.8,1.8,0,0,1-.1-.7v-4.6Z"></path>
    <path fill="#004778" d="M173.4,136l-1.2-.3v-.4l2.9-.5v6l1.1.5v.4h-4v-.4l1.2-.5Zm.8-3.9.8.2a.9.9,0,0,1,0,1.2l-.8.2-.8-.2a1,1,0,0,1,0-1.2Z"></path>
    <path fill="#004778" d="M177.7,133.2l-1.2-.3v-.4l2.9-.5v8.8l1,.5v.4h-3.8v-.4l1.2-.5Zm4,2.5-.9-.4V135h3.4v.4l-1.4.5-1.8,1.6,2.4,3.5,1,.4v.4h-2.5l-2.4-3.6Z"></path>
    <path fill="#004778" d="M193.3,141.1l-.9.4-.6.2h-1.5l-.6-.3-.4-.6a2.5,2.5,0,0,1-.2-.9V136l-1.2-.3v-.4l2.9-.5v4.4a1.7,1.7,0,0,0,.3,1.2,1.4,1.4,0,0,0,1.1.3h1V136l-1.2-.3v-.4l2.9-.5v5.8l1.1.3v.4l-2.8.5Z"></path>
    <path fill="#004778" d="M199.6,140.8l1,.5v.4h-3.9v-.4l1.2-.5V136l-1.2-.3v-.4l2.9-.5v.8l1-.4.6-.2h.8a1.6,1.6,0,0,1,1.3.5,2.2,2.2,0,0,1,.4,1.5v3.9l1.2.5v.4h-3.7v-.4l.9-.5v-3.5a1.2,1.2,0,0,0-1.3-1.3h-1.1Z"></path>
    <path fill="#004778" d="M212.9,140.9v.4l-2.8.5V141l-.8.4-.6.3h-.9l-1-.2-.8-.7a3.3,3.3,0,0,1-.5-1,4.1,4.1,0,0,1,.1-2.7,3.6,3.6,0,0,1,.8-1.2,3.5,3.5,0,0,1,1.1-.8,3.6,3.6,0,0,1,1.4-.3h1.1v-1.8l-1.2-.3v-.4l2.9-.5v8.6Zm-2.8-5.3h-.6l-.9.2-.7.5a2.5,2.5,0,0,0-.5.9,3.6,3.6,0,0,0-.2,1.1,2.9,2.9,0,0,0,.5,1.9,1.8,1.8,0,0,0,1.5.7h.9Z"></path>
    <path fill="#004778" d="M217.4,139h.6l.7,1.9h1.2a1.8,1.8,0,0,0,1.3-.4,1.3,1.3,0,0,0,.4-1,1.6,1.6,0,0,0,0-.4l-.2-.3-.3-.3-.5-.4-1.5-1a3.7,3.7,0,0,1-1.1-1.1,2.4,2.4,0,0,1-.1-2.3,2.2,2.2,0,0,1,.6-.8l1-.5,1.3-.2H222l1,.3v2.2h-.6l-.7-1.8h-.8a2.8,2.8,0,0,0-1.5.3,1,1,0,0,0-.5.9,1.1,1.1,0,0,0,.2.7l.7.6,2.3,1.5a2.1,2.1,0,0,1,.8,1,3,3,0,0,1,.2,1.1,2.3,2.3,0,0,1-.2,1.1,2.3,2.3,0,0,1-.6.8l-1,.5-1.2.2h-2l-.8-.2Z"></path>
    <path fill="#004778" d="M225.2,136l-1.2-.3v-.4l2.9-.5v6l1.1.5v.4h-4v-.4l1.2-.5Zm.8-3.9.8.2a.9.9,0,0,1,0,1.2l-.8.2-.8-.2a1,1,0,0,1,0-1.2Z"></path>
    <path fill="#004778" d="M234.2,136.7H233l-.6-1.3h-.1l-.8.2-.7.6a2.9,2.9,0,0,0-.4.9,3.7,3.7,0,0,0-.2,1.1,2.8,2.8,0,0,0,.7,2,2.5,2.5,0,0,0,1.9.7h1.3v.5l-1.5.4h-1.1l-1.3-.2-1-.7a3,3,0,0,1-.6-1,3.7,3.7,0,0,1-.2-1.3,3.9,3.9,0,0,1,.3-1.5,3.2,3.2,0,0,1,.8-1.1,3.5,3.5,0,0,1,1.2-.7l1.5-.3h.9l1.1.2Z"></path>
    <path fill="#004778" d="M237.8,140.8l1,.5v.4H235v-.4l1.2-.5v-7.5l-1.2-.3v-.4l2.9-.5v3.6l.9-.3.7-.2h1a1.5,1.5,0,0,1,1.3.6,2.6,2.6,0,0,1,.5,1.7v3.6l1.2.5v.4h-3.8v-.4l1-.5v-3.2a2.1,2.1,0,0,0-.3-1.3,1.3,1.3,0,0,0-1.1-.4h-1.1Z"></path>
    <path fill="#004778" d="M245.4,138.2h0a3,3,0,0,0,.2,1.1,2.4,2.4,0,0,0,.5.8l.8.5,1,.2h.7l.9-.2v.5l-1.5.4-1.2.2-1.3-.2a2.8,2.8,0,0,1-1.6-1.7,4,4,0,0,1-.2-1.4,4.1,4.1,0,0,1,.2-1.4,3.5,3.5,0,0,1,.7-1.1,3,3,0,0,1,1-.7l1.3-.3a2.7,2.7,0,0,1,2,.7,3.2,3.2,0,0,1,.7,2.3v.2Zm2.5-.7h0a2.4,2.4,0,0,0-.3-1.5,1,1,0,0,0-.8-.4,1.1,1.1,0,0,0-1,.5,2.6,2.6,0,0,0-.4,1.4v.3Z"></path>
    <path fill="#004778" d="M253.2,140.8l1.4.5v.4h-4.3v-.4l1.2-.5V136l-1.2-.3v-.4l2.9-.5v.8l.7-.4.7-.3h1l.4.2v1.7h-1.4l-.4-.9h-1.1Z"></path>
    <path fill="#004778" d="M259.4,140.8l1,.5v.4h-3.9v-.4l1.2-.5v-7.5l-1.2-.3v-.4l2.9-.5v3.6l.9-.3.7-.2h1a1.5,1.5,0,0,1,1.3.6,2.6,2.6,0,0,1,.5,1.7v3.6l1.2.5v.4H261v-.4l1-.5v-3.2a2.1,2.1,0,0,0-.3-1.3,1.3,1.3,0,0,0-1.1-.4h-1.1Z"></path>
    <path fill="#004778" d="M267,138.2h0a3,3,0,0,0,.2,1.1,2.4,2.4,0,0,0,.5.8l.8.5,1,.2h.7l.9-.2v.5l-1.5.4-1.2.2-1.3-.2a2.8,2.8,0,0,1-1.6-1.7,4,4,0,0,1-.2-1.4,4.1,4.1,0,0,1,.2-1.4,3.5,3.5,0,0,1,.7-1.1,3,3,0,0,1,1-.7l1.3-.3a2.7,2.7,0,0,1,2,.7,3.2,3.2,0,0,1,.7,2.3v.2Zm2.5-.7h0a2.4,2.4,0,0,0-.3-1.5,1,1,0,0,0-.8-.4,1.1,1.1,0,0,0-1,.5,2.6,2.6,0,0,0-.4,1.4v.3Z"></path>
    <path fill="#004778" d="M273.1,136l-1.2-.3v-.4l2.9-.5v6l1.1.5v.4h-4v-.4l1.2-.5Zm.8-3.9.8.2a.9.9,0,0,1,0,1.2l-.8.2-.8-.2a1,1,0,0,1,0-1.2Z"></path>
    <path fill="#004778" d="M276.1,135.7v-.5l.9-.3.5-.3.4-.5.4-.8h.5V135h2.1v.7h-2.1v4.3a1.2,1.2,0,0,0,.1.5l.3.3h1.8v.5l-.9.2h-2l-.5-.2-.4-.5a1.8,1.8,0,0,1-.1-.7v-4.6Z"></path>
</svg>
